<?xml version="1.0" encoding="UTF-8" standalone="no"?>
<!-- Created with Inkscape (http://www.inkscape.org/) -->

<svg
   width="1000.0001"
   height="1000.0001"
   viewBox="0 0 264.58335 264.58335"
   version="1.1"
   id="svg1"
   xmlns="http://www.w3.org/2000/svg"
   xmlns:svg="http://www.w3.org/2000/svg">
  <defs
     id="defs1">
    <mask
       maskUnits="userSpaceOnUse"
       id="mask-powermask-path-effect4">
      <path
         id="mask-powermask-path-effect4_box"
         style="fill:#ffffff;fill-opacity:1"
         d="M -0.47082043,-0.47082043 H 265.05416 V 265.05416 H -0.47082043 Z" />
      <path
         d="M 137.75973,195.26254 V 169.15697 H 86.606914 V 150.63612 L 138.28889,69.320791 h 23.81252 v 79.198669 h 16.22779 v 20.63751 h -16.22779 v 26.10557 z m -27.69308,-46.74308 h 27.69308 v -21.34307 q 0,-1.94028 0.17638,-5.99723 0.17639,-4.23334 0.35278,-8.64306 0.17639,-4.58612 0.35278,-8.1139 0.17639,-3.52778 0.35278,-4.23333 h -0.70556 q -1.5875,3.52778 -3.52778,6.87917 -1.94028,3.35139 -4.05694,6.87917 z"
         id="path4"
         style="font-weight:bold;font-size:176.389px;line-height:0.8;font-family:'Noto Sans Mono';-inkscape-font-specification:'Noto Sans Mono, Bold';fill:#000000;fill-opacity:1;fill:#000000;stroke-width:13.229;paint-order:markers stroke fill"
         aria-label="4" />
    </mask>
  </defs>
  <path
     style="fill:#000000;fill-opacity:1;stroke:#000000;stroke-width:23.8328;stroke-dasharray:none;stroke-opacity:1"
     id="path3"
     mask="url(#mask-powermask-path-effect4)"
     d="M 252.13776,132.29167 A 119.84609,119.84609 0 0 1 132.29167,252.13776 119.84609,119.84609 0 0 1 12.44558,132.29167 119.84609,119.84609 0 0 1 132.29167,12.44558 119.84609,119.84609 0 0 1 252.13776,132.29167 Z" />
</svg>
