<?xml version="1.0" encoding="UTF-8" standalone="no"?>
<!-- Created with Inkscape (http://www.inkscape.org/) -->

<svg
   width="1000.0001"
   height="1000.0001"
   viewBox="0 0 264.58335 264.58335"
   version="1.1"
   id="svg1"
   xmlns="http://www.w3.org/2000/svg"
   xmlns:svg="http://www.w3.org/2000/svg">
  <defs
     id="defs1">
    <mask
       maskUnits="userSpaceOnUse"
       id="mask-powermask-path-effect4">
      <path
         id="mask-powermask-path-effect4_box"
         style="fill:#ffffff;fill-opacity:1"
         d="M -0.47082043,-0.47082043 H 265.05416 V 265.05416 H -0.47082043 Z" />
      <path
         d="m 112.5361,197.02643 q -3.88056,0 -7.93751,-0.35278 -3.88056,-0.17638 -6.87917,-0.88194 v -21.34307 q 7.23195,1.76389 15.87501,1.76389 19.2264,0 27.51669,-10.23056 8.46667,-10.40695 9.87778,-29.10419 h -1.05833 q -8.1139,14.28751 -26.63474,14.28751 -16.58057,0 -25.40002,-10.58334 -8.643062,-10.75973 -8.643062,-28.9278 0,-20.461123 10.936122,-32.279184 10.93612,-11.994455 30.69168,-11.994455 20.46113,0 32.63197,14.993067 12.17084,14.993065 12.17084,43.391692 0,35.45419 -15.52223,53.44587 -15.52223,17.81529 -47.62503,17.81529 z m 18.34445,-66.32226 q 7.40834,0 12.8764,-5.29167 5.46806,-5.29167 5.46806,-14.64029 0,-9.52501 -4.7625,-15.169457 -4.7625,-5.820836 -13.05279,-5.820836 -16.40418,0 -16.40418,21.519463 0,9.17222 3.88056,14.2875 3.88056,5.11529 11.99445,5.11529 z"
         id="path4"
         style="font-weight:bold;font-size:176.389px;line-height:0.8;font-family:'Noto Sans Mono';-inkscape-font-specification:'Noto Sans Mono, Bold';fill:#000000;fill-opacity:1;fill:#000000;stroke-width:13.229;paint-order:markers stroke fill"
         aria-label="9" />
    </mask>
  </defs>
  <path
     style="fill:#000000;fill-opacity:1;stroke:#000000;stroke-width:23.8328;stroke-dasharray:none;stroke-opacity:1"
     id="path3"
     mask="url(#mask-powermask-path-effect4)"
     d="M 252.13776,132.29167 A 119.84609,119.84609 0 0 1 132.29167,252.13776 119.84609,119.84609 0 0 1 12.44558,132.29167 119.84609,119.84609 0 0 1 132.29167,12.44558 119.84609,119.84609 0 0 1 252.13776,132.29167 Z" />
</svg>
