<?xml version="1.0" encoding="UTF-8" standalone="no"?>
<!-- Created with Inkscape (http://www.inkscape.org/) -->

<svg
   width="1000.0001"
   height="1000.0001"
   viewBox="0 0 264.58335 264.58335"
   version="1.1"
   id="svg1"
   xmlns="http://www.w3.org/2000/svg"
   xmlns:svg="http://www.w3.org/2000/svg">
  <defs
     id="defs1">
    <mask
       maskUnits="userSpaceOnUse"
       id="mask-powermask-path-effect4">
      <path
         id="mask-powermask-path-effect4_box"
         style="fill:#ffffff;fill-opacity:1"
         d="M -0.47082043,-0.47082043 H 265.05416 V 265.05416 H -0.47082043 Z" />
      <path
         d="M 89.605527,195.26254 V 176.7417 l 30.691683,-30.69169 q 7.40834,-7.40834 13.58196,-13.93473 6.17361,-6.5264 9.87778,-12.8764 3.70417,-6.52639 3.70417,-13.58195 0,-7.584731 -4.40972,-11.641677 -4.40973,-4.233336 -11.64168,-4.233336 -7.05556,0 -13.58195,3.175 -6.5264,3.175003 -14.11112,9.701393 L 89.252748,85.548581 q 6.879172,-5.997228 13.052792,-9.877785 6.35,-4.056949 13.58195,-5.997228 7.40834,-2.116667 17.46251,-2.116667 12.8764,0 21.87224,4.586113 9.17223,4.586116 13.93473,12.523621 4.93889,7.761115 4.93889,17.815285 0,11.2889 -4.93889,20.63752 -4.93889,9.17223 -13.05279,17.46251 -7.9375,8.29028 -17.46251,16.75696 l -16.22779,14.28751 v 1.76389 h 55.03337 v 21.87223 z"
         id="path4"
         style="font-weight:bold;font-size:176.389px;line-height:0.8;font-family:'Noto Sans Mono';-inkscape-font-specification:'Noto Sans Mono, Bold';fill:#000000;fill-opacity:1;fill:#000000;stroke-width:13.229;paint-order:markers stroke fill"
         aria-label="2" />
    </mask>
  </defs>
  <path
     style="fill:#000000;fill-opacity:1;stroke:#000000;stroke-width:23.8328;stroke-dasharray:none;stroke-opacity:1"
     id="path3"
     mask="url(#mask-powermask-path-effect4)"
     d="M 252.13776,132.29167 A 119.84609,119.84609 0 0 1 132.29167,252.13776 119.84609,119.84609 0 0 1 12.44558,132.29167 119.84609,119.84609 0 0 1 132.29167,12.44558 119.84609,119.84609 0 0 1 252.13776,132.29167 Z" />
</svg>
