<?xml version="1.0" encoding="UTF-8" standalone="no"?>
<!-- Created with Inkscape (http://www.inkscape.org/) -->

<svg
   width="1000.0001"
   height="1000.0001"
   viewBox="0 0 264.58335 264.58335"
   version="1.1"
   id="svg1"
   xmlns="http://www.w3.org/2000/svg"
   xmlns:svg="http://www.w3.org/2000/svg">
  <defs
     id="defs1" />
  <circle
     style="fill:none;fill-opacity:1;stroke:#000000;stroke-width:23.8328;stroke-dasharray:none;stroke-opacity:1"
     id="path3"
     mask="none"
     cx="132.29167"
     cy="132.29167"
     r="119.84609" />
  <path
     d="m 132.46806,197.02643 q -12.17085,0 -21.87224,-3.52778 -9.52501,-3.70417 -15.169456,-11.1125 -5.468059,-7.40834 -5.468059,-19.05002 0,-10.93612 5.29167,-19.2264 5.291675,-8.29028 17.109735,-14.64029 -9.87779,-6.70278 -14.287511,-14.4639 -4.233336,-7.9375 -4.233336,-17.109729 0,-9.877785 5.29167,-16.580567 5.291667,-6.702782 14.111117,-10.054174 8.81945,-3.52778 19.22641,-3.52778 10.58334,0 19.40279,3.351391 8.81945,3.351392 13.93473,10.054174 5.29167,6.702782 5.29167,16.933345 0,9.70139 -5.11528,17.28612 -4.9389,7.40834 -15.87501,13.40557 13.22917,7.58472 19.05001,15.87501 5.82084,8.11389 5.82084,17.99168 0,11.28889 -5.82084,18.87362 -5.64445,7.58473 -15.34584,11.64167 -9.7014,3.88056 -21.34307,3.88056 z m 0,-79.37505 q 7.58472,-4.05695 10.58334,-8.11389 2.99861,-4.05695 2.99861,-9.52501 0,-5.291672 -3.88056,-8.290285 -3.70417,-3.175002 -9.87778,-3.175002 -5.99723,0 -9.7014,3.175002 -3.70417,3.175002 -3.70417,8.290285 0,6.17361 3.70417,10.23056 3.70417,3.88056 9.87779,7.40834 z m -0.35278,58.73754 q 9.17223,0 13.58195,-4.05695 4.58612,-4.05695 4.58612,-10.40695 0,-5.64445 -4.58612,-10.75973 -4.58611,-5.11528 -14.4639,-10.75973 -16.58056,8.46667 -16.58056,21.34307 0,6.70278 4.58611,10.75973 4.7625,3.88056 12.8764,3.88056 z"
     id="text3"
     style="font-weight:bold;font-size:176.389px;line-height:0.8;font-family:'Noto Sans Mono';-inkscape-font-specification:'Noto Sans Mono, Bold';fill:#000000;fill-opacity:1;stroke-width:13.229;paint-order:markers stroke fill"
     aria-label="8" />
</svg>
