<?xml version="1.0" encoding="UTF-8" standalone="no"?>
<!-- Created with Inkscape (http://www.inkscape.org/) -->

<svg
   width="1000.0001"
   height="1000.0001"
   viewBox="0 0 264.58335 264.58335"
   version="1.1"
   id="svg1"
   xmlns="http://www.w3.org/2000/svg"
   xmlns:svg="http://www.w3.org/2000/svg">
  <defs
     id="defs1" />
  <circle
     style="fill:none;fill-opacity:1;stroke:#000000;stroke-width:23.8328;stroke-dasharray:none;stroke-opacity:1"
     id="path3"
     mask="none"
     cx="132.29167"
     cy="132.29167"
     r="119.84609" />
  <path
     d="m 134.05556,197.20282 q -20.28474,0 -32.63197,-14.99306 -12.170841,-15.16946 -12.170841,-44.45003 0,-34.39586 15.345841,-52.034761 15.52224,-17.81529 47.44865,-17.81529 3.88055,0 7.76111,0.352778 4.05695,0.176389 7.05556,0.881945 v 21.34307 q -7.23195,-1.76389 -15.87501,-1.76389 -17.81529,0 -26.81113,9.877785 -8.81945,9.701393 -10.40695,29.456963 h 1.05833 q 4.23334,-7.23195 10.75973,-10.93612 6.5264,-3.70417 16.0514,-3.70417 16.75696,0 25.40002,10.75973 8.64306,10.75973 8.64306,29.10419 0,20.28473 -10.93612,32.1028 -10.93611,11.81806 -30.69168,11.81806 z m -0.52917,-22.4014 q 16.40418,0 16.40418,-21.16668 0,-9.34862 -3.88056,-14.4639 -3.88056,-5.29167 -11.99445,-5.29167 -7.40834,0 -12.8764,5.46806 -5.46806,5.46806 -5.46806,15.34584 0,8.99584 4.7625,14.64029 4.9389,5.46806 13.05279,5.46806 z"
     id="text3"
     style="font-weight:bold;font-size:176.389px;line-height:0.8;font-family:'Noto Sans Mono';-inkscape-font-specification:'Noto Sans Mono, Bold';fill:#000000;fill-opacity:1;stroke-width:13.229;paint-order:markers stroke fill"
     aria-label="6" />
</svg>
