<?xml version="1.0" encoding="UTF-8" standalone="no"?>
<!-- Created with Inkscape (http://www.inkscape.org/) -->

<svg
   width="1000.0001"
   height="1000.0001"
   viewBox="0 0 264.58335 264.58335"
   version="1.1"
   id="svg1"
   xmlns="http://www.w3.org/2000/svg"
   xmlns:svg="http://www.w3.org/2000/svg">
  <defs
     id="defs1">
    <mask
       maskUnits="userSpaceOnUse"
       id="mask-powermask-path-effect3">
      <path
         id="mask-powermask-path-effect3_box"
         style="fill:#ffffff;fill-opacity:1"
         d="M -0.47082043,-0.47082043 H 265.05416 V 265.05416 H -0.47082043 Z" />
      <path
         d="m 99.483312,195.26254 v -17.81529 l 24.341678,-2.64583 v -52.38754 q 0,-6.87917 0.17639,-12.87639 0.17639,-5.99723 0.52917,-12.170847 -2.64583,1.763892 -5.11528,3.351387 -2.46945,1.41112 -4.40973,2.46945 L 103.01109,109.71387 91.545807,89.076361 128.5875,69.320791 h 20.8139 V 174.80142 l 23.63613,2.64583 v 17.81529 z"
         id="path1"
         style="font-weight:bold;font-size:176.389px;line-height:0.8;font-family:'Noto Sans Mono';-inkscape-font-specification:'Noto Sans Mono, Bold';fill:#000000;fill-opacity:1;stroke-width:13.229;paint-order:markers stroke fill"
         aria-label="1" />
    </mask>
  </defs>
  <path
     style="fill:#000000;fill-opacity:1;stroke:#000000;stroke-width:23.8328;stroke-dasharray:none;stroke-opacity:1"
     id="path3"
     mask="url(#mask-powermask-path-effect3)"
     d="M 252.13776,132.29167 A 119.84609,119.84609 0 0 1 132.29167,252.13776 119.84609,119.84609 0 0 1 12.44558,132.29167 119.84609,119.84609 0 0 1 132.29167,12.44558 119.84609,119.84609 0 0 1 252.13776,132.29167 Z" />
</svg>
