<?xml version="1.0" encoding="UTF-8" standalone="no"?>
<!-- Created with Inkscape (http://www.inkscape.org/) -->

<svg
   width="1000.0001"
   height="1000.0001"
   viewBox="0 0 264.58335 264.58335"
   version="1.1"
   id="svg1"
   xmlns="http://www.w3.org/2000/svg"
   xmlns:svg="http://www.w3.org/2000/svg">
  <defs
     id="defs1" />
  <circle
     style="fill:none;fill-opacity:1;stroke:#000000;stroke-width:23.8328;stroke-dasharray:none;stroke-opacity:1"
     id="path3"
     mask="none"
     cx="132.29167"
     cy="132.29167"
     r="119.84609" />
  <path
     d="m 127.70555,197.02643 q -8.64306,0 -17.99168,-1.76389 -9.17222,-1.76389 -17.638897,-5.11528 v -22.57779 q 7.761116,3.70417 16.933347,5.82084 9.17223,2.11666 16.75695,2.11666 22.04863,0 22.04863,-18.16806 0,-9.17223 -6.35,-12.8764 -6.35001,-3.70417 -21.51946,-3.70417 h -9.52501 v -20.46113 h 9.7014 q 13.58195,0 19.57918,-4.40972 6.17361,-4.40973 6.17361,-12.52362 0,-5.820837 -3.35139,-9.877785 -3.35139,-4.056947 -11.99445,-4.056947 -5.46806,0 -12.17084,2.116668 -6.70279,2.116668 -15.16946,6.702783 L 91.722195,79.904132 q 18.344455,-12.347231 40.216695,-12.347231 10.05417,0 18.69723,3.175002 8.81945,2.998614 14.11112,9.701396 5.46806,6.526393 5.46806,17.286123 0,10.936118 -6.35,19.579178 -6.17362,8.64306 -18.16807,11.64168 v 0.52916 q 14.81668,2.11667 21.51946,9.52501 6.70278,7.40834 6.70278,19.57918 0,13.40556 -6.35,22.04863 -6.17362,8.46667 -16.58057,12.52361 -10.40695,3.88056 -23.28335,3.88056 z"
     id="text3"
     style="font-weight:bold;font-size:176.389px;line-height:0.8;font-family:'Noto Sans Mono';-inkscape-font-specification:'Noto Sans Mono, Bold';fill:#000000;fill-opacity:1;stroke-width:13.229;paint-order:markers stroke fill"
     aria-label="3" />
</svg>
