<?xml version="1.0" encoding="UTF-8" standalone="no"?>
<!-- Created with Inkscape (http://www.inkscape.org/) -->

<svg
   width="1000.0001"
   height="1000.0001"
   viewBox="0 0 264.58335 264.58335"
   version="1.1"
   id="svg1"
   xmlns="http://www.w3.org/2000/svg"
   xmlns:svg="http://www.w3.org/2000/svg">
  <defs
     id="defs1" />
  <circle
     style="fill:none;fill-opacity:1;stroke:#000000;stroke-width:23.8328;stroke-dasharray:none;stroke-opacity:1"
     id="path3"
     mask="none"
     cx="132.29167"
     cy="132.29167"
     r="119.84609" />
  <path
     d="M 89.605527,195.26254 V 176.7417 l 30.691683,-30.69169 q 7.40834,-7.40834 13.58196,-13.93473 6.17361,-6.5264 9.87778,-12.8764 3.70417,-6.52639 3.70417,-13.58195 0,-7.58473 -4.40972,-11.641678 -4.40973,-4.233336 -11.64168,-4.233336 -7.05556,0 -13.58195,3.175002 -6.5264,3.175002 -14.11112,9.701392 L 89.252749,85.54858 q 6.879171,-5.997226 13.052791,-9.877784 6.35,-4.056948 13.58195,-5.997227 7.40834,-2.116668 17.46251,-2.116668 12.8764,0 21.87224,4.586114 9.17223,4.586115 13.93473,12.52362 4.93889,7.761116 4.93889,17.815285 0,11.2889 -4.93889,20.63752 -4.93889,9.17223 -13.05279,17.46251 -7.9375,8.29028 -17.46251,16.75696 l -16.22779,14.28751 v 1.76389 h 55.03337 v 21.87223 z"
     id="text3"
     style="font-weight:bold;font-size:176.389px;line-height:0.8;font-family:'Noto Sans Mono';-inkscape-font-specification:'Noto Sans Mono, Bold';fill:#000000;fill-opacity:1;stroke-width:13.229;paint-order:markers stroke fill"
     aria-label="2" />
</svg>
